<svg width="16" height="16" viewBox="0 0 16 16" fill="none" xmlns="http://www.w3.org/2000/svg">
<path d="M8.00028 10.3342C7.84451 10.3345 7.69355 10.2802 7.57361 10.1808L3.57361 6.84751C3.29011 6.61187 3.25131 6.19102 3.48695 5.90751C3.72259 5.62401 4.14344 5.58521 4.42695 5.82085L8.00028 8.80751L11.5736 5.92751C11.7113 5.81567 11.888 5.76333 12.0644 5.7821C12.2408 5.80087 12.4025 5.88919 12.5136 6.02751C12.637 6.16609 12.6971 6.34983 12.6794 6.53455C12.6617 6.71927 12.5678 6.88825 12.4203 7.00085L8.42028 10.2208C8.29689 10.3045 8.14901 10.3444 8.00028 10.3342Z" fill="#637381"/>
</svg>
