<svg width="20" height="20" viewBox="0 0 20 20" fill="none" xmlns="http://www.w3.org/2000/svg">
<g opacity="0.48">
<path d="M14.6334 17.5C14.5001 17.5005 14.3687 17.4691 14.25 17.4083L10 15.1833L5.75005 17.4083C5.61204 17.4809 5.45644 17.5133 5.30094 17.5018C5.14544 17.4904 4.99628 17.4355 4.8704 17.3435C4.74453 17.2515 4.647 17.126 4.58889 16.9813C4.53079 16.8366 4.51444 16.6785 4.54171 16.525L5.37505 11.8333L1.94171 8.5C1.83459 8.39311 1.75861 8.25906 1.7219 8.11225C1.6852 7.96543 1.68917 7.8114 1.73338 7.66667C1.78168 7.51856 1.87053 7.38696 1.98984 7.2868C2.10915 7.18664 2.25415 7.12192 2.40838 7.1L7.15838 6.40833L9.25005 2.13333C9.31828 1.99244 9.42483 1.87362 9.55747 1.79048C9.69012 1.70734 9.8435 1.66324 10 1.66324C10.1566 1.66324 10.31 1.70734 10.4426 1.79048C10.5753 1.87362 10.6818 1.99244 10.75 2.13333L12.8667 6.4L17.6167 7.09167C17.7709 7.11359 17.9159 7.1783 18.0353 7.27847C18.1546 7.37863 18.2434 7.51023 18.2917 7.65833C18.3359 7.80306 18.3399 7.9571 18.3032 8.10391C18.2665 8.25072 18.1905 8.38477 18.0834 8.49167L14.65 11.825L15.4834 16.5167C15.5131 16.6729 15.4976 16.8344 15.4385 16.982C15.3794 17.1297 15.2793 17.2574 15.15 17.35C14.9991 17.4557 14.8174 17.5085 14.6334 17.5Z" fill="#919EAB"/>
</g>
</svg>
