<svg width="20" height="20" viewBox="0 0 20 20" fill="none" xmlns="http://www.w3.org/2000/svg">
<g id="icons/ic-eva:arrow-ios-forward-fill">
<path id="primary-shape" d="M8.33334 15.8333C8.13863 15.8337 7.94993 15.7659 7.8 15.6417C7.62958 15.5004 7.52238 15.2971 7.50206 15.0766C7.48173 14.8562 7.54996 14.6367 7.69167 14.4667L11.425 10L7.825 5.525C7.6852 5.35284 7.61978 5.13205 7.64324 4.91151C7.6667 4.69098 7.7771 4.48889 7.95 4.35C8.12431 4.19663 8.35469 4.12293 8.58565 4.14666C8.81661 4.17039 9.02719 4.28939 9.16667 4.475L13.1917 9.475C13.4444 9.7825 13.4444 10.2258 13.1917 10.5333L9.025 15.5333C8.85545 15.7379 8.59853 15.8493 8.33334 15.8333Z" fill="#637381"/>
</g>
</svg>
